<svg xmlns="http://www.w3.org/2000/svg" viewBox="0 0 3760 2084" font-family="Arial, sans-serif">
<rect x="0" y="0" width="3760" height="2084" fill="#EAF2F8"/>
<polygon points="1816,204 1944,268 1816,332 1688,268" fill="#8CB369" stroke="#779859" stroke-width="1"/>
<polygon points="1944,268 2072,332 1944,396 1816,332" fill="#8CB369" stroke="#779859" stroke-width="1"/>
<polygon points="1688,268 1816,332 1688,396 1560,332" fill="#8CB369" stroke="#779859" stroke-width="1"/>
<polygon points="2072,332 2200,396 2072,460 1944,396" fill="#8CB369" stroke="#779859" stroke-width="1"/>
<polygon points="1816,332 1944,396 1816,460 1688,396" fill="#8CB369" stroke="#779859" stroke-width="1"/>
<polygon points="1560,332 1688,396 1560,460 1432,396" fill="#8CB369" stroke="#779859" stroke-width="1"/>
<polygon points="2200,396 2328,460 2200,524 2072,460" fill="#8CB369" stroke="#779859" stroke-width="1"/>
<polygon points="1944,396 2072,460 1944,524 1816,460" fill="#8CB369" stroke="#779859" stroke-width="1"/>
<polygon points="1688,396 1816,460 1688,524 1560,460" fill="#8CB369" stroke="#779859" stroke-width="1"/>
<polygon points="1432,396 1560,460 1432,524 1304,460" fill="#8CB369" stroke="#779859" stroke-width="1"/>
<polygon points="2328,460 2456,524 2328,588 2200,524" fill="#8CB369" stroke="#779859" stroke-width="1"/>
<polygon points="2072,460 2200,524 2072,588 1944,524" fill="#8CB369" stroke="#779859" stroke-width="1"/>
<polygon points="1816,460 1944,524 1816,588 1688,524" fill="#8CB369" stroke="#779859" stroke-width="1"/>
<polygon points="1560,460 1688,524 1560,588 1432,524" fill="#8CB369" stroke="#779859" stroke-width="1"/>
<polygon points="1304,460 1432,524 1304,588 1176,524" fill="#8CB369" stroke="#779859" stroke-width="1"/>
<rect x="1554" y="542" width="12" height="30" fill="#7A4B2B"/><circle cx="1560" cy="534" r="26" fill="#4E7A3F"/>
<polygon points="2456,524 2584,588 2456,652 2328,588" fill="#8CB369" stroke="#779859" stroke-width="1"/>
<polygon points="2200,524 2328,588 2200,652 2072,588" fill="#8CB369" stroke="#779859" stroke-width="1"/>
<polygon points="1944,524 2072,588 1944,652 1816,588" fill="#8CB369" stroke="#779859" stroke-width="1"/>
<polygon points="1688,524 1816,588 1688,652 1560,588" fill="#C9C6BE" stroke="#AAA8A1" stroke-width="1"/>
<polygon points="1432,524 1560,588 1432,652 1304,588" fill="#8CB369" stroke="#779859" stroke-width="1"/>
<polygon points="1176,524 1304,588 1176,652 1048,588" fill="#8CB369" stroke="#779859" stroke-width="1"/>
<polygon points="1688,524 1816,588 1688,652 1560,588" fill="#F5B041" opacity="0.28"/>
<polygon points="1560,588 1688,652 1688,560 1560,496" fill="#B4987B"/><polygon points="1688,652 1816,588 1816,496 1688,560" fill="#8F7861"/><polygon points="1688,432 1816,496 1688,560 1560,496" fill="#C0552B"/>
<polygon points="2584,588 2712,652 2584,716 2456,652" fill="#8CB369" stroke="#779859" stroke-width="1"/>
<polygon points="2328,588 2456,652 2328,716 2200,652" fill="#8CB369" stroke="#779859" stroke-width="1"/>
<polygon points="2072,588 2200,652 2072,716 1944,652" fill="#8CB369" stroke="#779859" stroke-width="1"/>
<polygon points="1816,588 1944,652 1816,716 1688,652" fill="#8CB369" stroke="#779859" stroke-width="1"/>
<polygon points="1560,588 1688,652 1560,716 1432,652" fill="#8CB369" stroke="#779859" stroke-width="1"/>
<polygon points="1304,588 1432,652 1304,716 1176,652" fill="#8CB369" stroke="#779859" stroke-width="1"/>
<polygon points="1048,588 1176,652 1048,716 920,652" fill="#8CB369" stroke="#779859" stroke-width="1"/>
<polygon points="2712,652 2840,716 2712,780 2584,716" fill="#8CB369" stroke="#779859" stroke-width="1"/>
<polygon points="2456,652 2584,716 2456,780 2328,716" fill="#8CB369" stroke="#779859" stroke-width="1"/>
<polygon points="2200,652 2328,716 2200,780 2072,716" fill="#8CB369" stroke="#779859" stroke-width="1"/>
<polygon points="1944,652 2072,716 1944,780 1816,716" fill="#8CB369" stroke="#779859" stroke-width="1"/>
<polygon points="1688,652 1816,716 1688,780 1560,716" fill="#8CB369" stroke="#779859" stroke-width="1"/>
<polygon points="1432,652 1560,716 1432,780 1304,716" fill="#8CB369" stroke="#779859" stroke-width="1"/>
<polygon points="1176,652 1304,716 1176,780 1048,716" fill="#8CB369" stroke="#779859" stroke-width="1"/>
<polygon points="920,652 1048,716 920,780 792,716" fill="#8CB369" stroke="#779859" stroke-width="1"/>
<polygon points="1688,652 1816,716 1688,780 1560,716" fill="#7C8A6B" stroke="#6E7B5E" stroke-width="1"/><polygon points="1714,665 1842,729 1714,793 1586,729" fill="#5A5A5A"/><line x1="1688" y1="670" x2="1688" y2="762" stroke="#D9D9D9" stroke-width="2" stroke-dasharray="8 8" opacity="0.7"/>
<polygon points="1688,652 1816,716 1688,780 1560,716" fill="#7C8A6B" stroke="#6E7B5E" stroke-width="1"/><polygon points="1714,665 1842,729 1714,793 1586,729" fill="#5A5A5A"/><line x1="1688" y1="670" x2="1688" y2="762" stroke="#D9D9D9" stroke-width="2" stroke-dasharray="8 8" opacity="0.7"/>
<polygon points="2840,716 2968,780 2840,844 2712,780" fill="#8CB369" stroke="#779859" stroke-width="1"/>
<polygon points="2584,716 2712,780 2584,844 2456,780" fill="#8CB369" stroke="#779859" stroke-width="1"/>
<polygon points="2328,716 2456,780 2328,844 2200,780" fill="#8CB369" stroke="#779859" stroke-width="1"/>
<polygon points="2072,716 2200,780 2072,844 1944,780" fill="#8CB369" stroke="#779859" stroke-width="1"/>
<polygon points="1816,716 1944,780 1816,844 1688,780" fill="#8CB369" stroke="#779859" stroke-width="1"/>
<polygon points="1560,716 1688,780 1560,844 1432,780" fill="#8CB369" stroke="#779859" stroke-width="1"/>
<polygon points="1304,716 1432,780 1304,844 1176,780" fill="#8CB369" stroke="#779859" stroke-width="1"/>
<polygon points="1048,716 1176,780 1048,844 920,780" fill="#8CB369" stroke="#779859" stroke-width="1"/>
<polygon points="792,716 920,780 792,844 664,780" fill="#8CB369" stroke="#779859" stroke-width="1"/>
<polygon points="1816,716 1944,780 1816,844 1688,780" fill="#7C8A6B" stroke="#6E7B5E" stroke-width="1"/><polygon points="1842,729 1970,793 1842,857 1714,793" fill="#5A5A5A"/><line x1="1816" y1="734" x2="1816" y2="826" stroke="#D9D9D9" stroke-width="2" stroke-dasharray="8 8" opacity="0.7"/>
<polygon points="1816,716 1944,780 1816,844 1688,780" fill="#7C8A6B" stroke="#6E7B5E" stroke-width="1"/><polygon points="1842,729 1970,793 1842,857 1714,793" fill="#5A5A5A"/><line x1="1816" y1="734" x2="1816" y2="826" stroke="#D9D9D9" stroke-width="2" stroke-dasharray="8 8" opacity="0.7"/>
<rect x="1554" y="798" width="12" height="30" fill="#7A4B2B"/><circle cx="1560" cy="790" r="26" fill="#4E7A3F"/>
<polygon points="2968,780 3096,844 2968,908 2840,844" fill="#8CB369" stroke="#779859" stroke-width="1"/>
<polygon points="2712,780 2840,844 2712,908 2584,844" fill="#8CB369" stroke="#779859" stroke-width="1"/>
<polygon points="2456,780 2584,844 2456,908 2328,844" fill="#8CB369" stroke="#779859" stroke-width="1"/>
<polygon points="2200,780 2328,844 2200,908 2072,844" fill="#8CB369" stroke="#779859" stroke-width="1"/>
<polygon points="1944,780 2072,844 1944,908 1816,844" fill="#8CB369" stroke="#779859" stroke-width="1"/>
<polygon points="1688,780 1816,844 1688,908 1560,844" fill="#8CB369" stroke="#779859" stroke-width="1"/>
<polygon points="1432,780 1560,844 1432,908 1304,844" fill="#8CB369" stroke="#779859" stroke-width="1"/>
<polygon points="1176,780 1304,844 1176,908 1048,844" fill="#8CB369" stroke="#779859" stroke-width="1"/>
<polygon points="920,780 1048,844 920,908 792,844" fill="#8CB369" stroke="#779859" stroke-width="1"/>
<polygon points="664,780 792,844 664,908 536,844" fill="#8CB369" stroke="#779859" stroke-width="1"/>
<polygon points="3096,844 3224,908 3096,972 2968,908" fill="#8CB369" stroke="#779859" stroke-width="1"/>
<polygon points="2840,844 2968,908 2840,972 2712,908" fill="#8CB369" stroke="#779859" stroke-width="1"/>
<polygon points="2584,844 2712,908 2584,972 2456,908" fill="#8CB369" stroke="#779859" stroke-width="1"/>
<polygon points="2328,844 2456,908 2328,972 2200,908" fill="#8CB369" stroke="#779859" stroke-width="1"/>
<polygon points="2072,844 2200,908 2072,972 1944,908" fill="#8CB369" stroke="#779859" stroke-width="1"/>
<polygon points="1816,844 1944,908 1816,972 1688,908" fill="#C9C6BE" stroke="#AAA8A1" stroke-width="1"/>
<polygon points="1560,844 1688,908 1560,972 1432,908" fill="#8CB369" stroke="#779859" stroke-width="1"/>
<polygon points="1304,844 1432,908 1304,972 1176,908" fill="#8CB369" stroke="#779859" stroke-width="1"/>
<polygon points="1048,844 1176,908 1048,972 920,908" fill="#8CB369" stroke="#779859" stroke-width="1"/>
<polygon points="792,844 920,908 792,972 664,908" fill="#8CB369" stroke="#779859" stroke-width="1"/>
<polygon points="536,844 664,908 536,972 408,908" fill="#8CB369" stroke="#779859" stroke-width="1"/>
<polygon points="3224,908 3352,972 3224,1036 3096,972" fill="#8CB369" stroke="#779859" stroke-width="1"/>
<polygon points="2968,908 3096,972 2968,1036 2840,972" fill="#8CB369" stroke="#779859" stroke-width="1"/>
<polygon points="2712,908 2840,972 2712,1036 2584,972" fill="#8CB369" stroke="#779859" stroke-width="1"/>
<polygon points="2456,908 2584,972 2456,1036 2328,972" fill="#8CB369" stroke="#779859" stroke-width="1"/>
<polygon points="2200,908 2328,972 2200,1036 2072,972" fill="#8CB369" stroke="#779859" stroke-width="1"/>
<polygon points="1944,908 2072,972 1944,1036 1816,972" fill="#8CB369" stroke="#779859" stroke-width="1"/>
<polygon points="1688,908 1816,972 1688,1036 1560,972" fill="#8CB369" stroke="#779859" stroke-width="1"/>
<polygon points="1432,908 1560,972 1432,1036 1304,972" fill="#8CB369" stroke="#779859" stroke-width="1"/>
<polygon points="1176,908 1304,972 1176,1036 1048,972" fill="#8CB369" stroke="#779859" stroke-width="1"/>
<polygon points="920,908 1048,972 920,1036 792,972" fill="#8CB369" stroke="#779859" stroke-width="1"/>
<polygon points="664,908 792,972 664,1036 536,972" fill="#8CB369" stroke="#779859" stroke-width="1"/>
<polygon points="408,908 536,972 408,1036 280,972" fill="#8CB369" stroke="#779859" stroke-width="1"/>
<polygon points="2200,908 2328,972 2200,1036 2072,972" fill="#7C8A6B" stroke="#6E7B5E" stroke-width="1"/><polygon points="2226,921 2354,985 2226,1049 2098,985" fill="#5A5A5A"/><line x1="2200" y1="926" x2="2200" y2="1018" stroke="#D9D9D9" stroke-width="2" stroke-dasharray="8 8" opacity="0.7"/>
<polygon points="1944,908 2072,972 1944,1036 1816,972" fill="#7C8A6B" stroke="#6E7B5E" stroke-width="1"/><polygon points="1970,921 2098,985 1970,1049 1842,985" fill="#5A5A5A"/><line x1="1944" y1="926" x2="1944" y2="1018" stroke="#D9D9D9" stroke-width="2" stroke-dasharray="8 8" opacity="0.7"/>
<polygon points="1688,908 1816,972 1688,1036 1560,972" fill="#7C8A6B" stroke="#6E7B5E" stroke-width="1"/><polygon points="1714,921 1842,985 1714,1049 1586,985" fill="#5A5A5A"/><line x1="1688" y1="926" x2="1688" y2="1018" stroke="#D9D9D9" stroke-width="2" stroke-dasharray="8 8" opacity="0.7"/>
<polygon points="1944,908 2072,972 1944,1036 1816,972" fill="#7C8A6B" stroke="#6E7B5E" stroke-width="1"/><polygon points="1970,921 2098,985 1970,1049 1842,985" fill="#5A5A5A"/><line x1="1944" y1="926" x2="1944" y2="1018" stroke="#D9D9D9" stroke-width="2" stroke-dasharray="8 8" opacity="0.7"/>
<polygon points="1688,908 1816,972 1688,1036 1560,972" fill="#7C8A6B" stroke="#6E7B5E" stroke-width="1"/><polygon points="1714,921 1842,985 1714,1049 1586,985" fill="#5A5A5A"/><line x1="1688" y1="926" x2="1688" y2="1018" stroke="#D9D9D9" stroke-width="2" stroke-dasharray="8 8" opacity="0.7"/>
<rect x="1941" y="966" width="6" height="64" fill="#6B6B6B"/><circle cx="1944" cy="964" r="7" fill="#F4D35E"/>
<polygon points="3352,972 3480,1036 3352,1100 3224,1036" fill="#8CB369" stroke="#779859" stroke-width="1"/>
<polygon points="3096,972 3224,1036 3096,1100 2968,1036" fill="#8CB369" stroke="#779859" stroke-width="1"/>
<polygon points="2840,972 2968,1036 2840,1100 2712,1036" fill="#8CB369" stroke="#779859" stroke-width="1"/>
<polygon points="2584,972 2712,1036 2584,1100 2456,1036" fill="#8CB369" stroke="#779859" stroke-width="1"/>
<polygon points="2328,972 2456,1036 2328,1100 2200,1036" fill="#8CB369" stroke="#779859" stroke-width="1"/>
<polygon points="2072,972 2200,1036 2072,1100 1944,1036" fill="#8CB369" stroke="#779859" stroke-width="1"/>
<polygon points="1816,972 1944,1036 1816,1100 1688,1036" fill="#8CB369" stroke="#779859" stroke-width="1"/>
<polygon points="1560,972 1688,1036 1560,1100 1432,1036" fill="#8CB369" stroke="#779859" stroke-width="1"/>
<polygon points="1304,972 1432,1036 1304,1100 1176,1036" fill="#8CB369" stroke="#779859" stroke-width="1"/>
<polygon points="1048,972 1176,1036 1048,1100 920,1036" fill="#8CB369" stroke="#779859" stroke-width="1"/>
<polygon points="792,972 920,1036 792,1100 664,1036" fill="#8CB369" stroke="#779859" stroke-width="1"/>
<polygon points="536,972 664,1036 536,1100 408,1036" fill="#8CB369" stroke="#779859" stroke-width="1"/>
<polygon points="280,972 408,1036 280,1100 152,1036" fill="#8CB369" stroke="#779859" stroke-width="1"/>
<polygon points="2328,972 2456,1036 2328,1100 2200,1036" fill="#7C8A6B" stroke="#6E7B5E" stroke-width="1"/><polygon points="2354,985 2482,1049 2354,1113 2226,1049" fill="#5A5A5A"/><line x1="2328" y1="990" x2="2328" y2="1082" stroke="#D9D9D9" stroke-width="2" stroke-dasharray="8 8" opacity="0.7"/>
<polygon points="1560,972 1688,1036 1560,1100 1432,1036" fill="#7C8A6B" stroke="#6E7B5E" stroke-width="1"/><polygon points="1586,985 1714,1049 1586,1113 1458,1049" fill="#5A5A5A"/><line x1="1560" y1="990" x2="1560" y2="1082" stroke="#D9D9D9" stroke-width="2" stroke-dasharray="8 8" opacity="0.7"/>
<polygon points="2072,972 2200,1036 2072,1100 1944,1036" fill="#7C8A6B" stroke="#6E7B5E" stroke-width="1"/><polygon points="2098,985 2226,1049 2098,1113 1970,1049" fill="#5A5A5A"/><line x1="2072" y1="990" x2="2072" y2="1082" stroke="#D9D9D9" stroke-width="2" stroke-dasharray="8 8" opacity="0.7"/>
<polygon points="2328,972 2456,1036 2328,1100 2200,1036" fill="#7C8A6B" stroke="#6E7B5E" stroke-width="1"/><polygon points="2354,985 2482,1049 2354,1113 2226,1049" fill="#5A5A5A"/><line x1="2328" y1="990" x2="2328" y2="1082" stroke="#D9D9D9" stroke-width="2" stroke-dasharray="8 8" opacity="0.7"/>
<polygon points="1560,972 1688,1036 1560,1100 1432,1036" fill="#7C8A6B" stroke="#6E7B5E" stroke-width="1"/><polygon points="1586,985 1714,1049 1586,1113 1458,1049" fill="#5A5A5A"/><line x1="1560" y1="990" x2="1560" y2="1082" stroke="#D9D9D9" stroke-width="2" stroke-dasharray="8 8" opacity="0.7"/>
<polygon points="3480,1036 3608,1100 3480,1164 3352,1100" fill="#8CB369" stroke="#779859" stroke-width="1"/>
<polygon points="3224,1036 3352,1100 3224,1164 3096,1100" fill="#8CB369" stroke="#779859" stroke-width="1"/>
<polygon points="2968,1036 3096,1100 2968,1164 2840,1100" fill="#8CB369" stroke="#779859" stroke-width="1"/>
<polygon points="2712,1036 2840,1100 2712,1164 2584,1100" fill="#8CB369" stroke="#779859" stroke-width="1"/>
<polygon points="2456,1036 2584,1100 2456,1164 2328,1100" fill="#C9C6BE" stroke="#AAA8A1" stroke-width="1"/>
<polygon points="2200,1036 2328,1100 2200,1164 2072,1100" fill="#8CB369" stroke="#779859" stroke-width="1"/>
<polygon points="1944,1036 2072,1100 1944,1164 1816,1100" fill="#8CB369" stroke="#779859" stroke-width="1"/>
<polygon points="1688,1036 1816,1100 1688,1164 1560,1100" fill="#8CB369" stroke="#779859" stroke-width="1"/>
<polygon points="1432,1036 1560,1100 1432,1164 1304,1100" fill="#8CB369" stroke="#779859" stroke-width="1"/>
<polygon points="1176,1036 1304,1100 1176,1164 1048,1100" fill="#8CB369" stroke="#779859" stroke-width="1"/>
<polygon points="920,1036 1048,1100 920,1164 792,1100" fill="#8CB369" stroke="#779859" stroke-width="1"/>
<polygon points="664,1036 792,1100 664,1164 536,1100" fill="#8CB369" stroke="#779859" stroke-width="1"/>
<polygon points="408,1036 536,1100 408,1164 280,1100" fill="#8CB369" stroke="#779859" stroke-width="1"/>
<polygon points="152,1036 280,1100 152,1164 24,1100" fill="#8CB369" stroke="#779859" stroke-width="1"/>
<polygon points="1432,1036 1560,1100 1432,1164 1304,1100" fill="#7C8A6B" stroke="#6E7B5E" stroke-width="1"/><polygon points="1458,1049 1586,1113 1458,1177 1330,1113" fill="#5A5A5A"/><line x1="1432" y1="1054" x2="1432" y2="1146" stroke="#D9D9D9" stroke-width="2" stroke-dasharray="8 8" opacity="0.7"/>
<polygon points="1432,1036 1560,1100 1432,1164 1304,1100" fill="#7C8A6B" stroke="#6E7B5E" stroke-width="1"/><polygon points="1458,1049 1586,1113 1458,1177 1330,1113" fill="#5A5A5A"/><line x1="1432" y1="1054" x2="1432" y2="1146" stroke="#D9D9D9" stroke-width="2" stroke-dasharray="8 8" opacity="0.7"/>
<polygon points="2456,1036 2584,1100 2456,1164 2328,1100" fill="#F5B041" opacity="0.28"/>
<polygon points="2200,1036 2456,1164 2456,1044 2200,916" fill="#9BA4B4"/><polygon points="2456,1164 2712,1036 2712,916 2456,1044" fill="#7B828F"/><polygon points="2456,788 2712,916 2456,1044 2200,916" fill="#3D6098"/>
<ellipse cx="2456" cy="1160" rx="18" ry="9" fill="none" stroke="#2E86C1" stroke-width="3" opacity="0.9"/><path d="M2456,1130 L2447,1156 L2465,1156 Z" fill="#4A4A4A"/><circle cx="2456" cy="1122" r="8" fill="#E8C39E" stroke="#B98C63"/>
<polygon points="3608,1100 3736,1164 3608,1228 3480,1164" fill="#8CB369" stroke="#779859" stroke-width="1"/>
<polygon points="3352,1100 3480,1164 3352,1228 3224,1164" fill="#8CB369" stroke="#779859" stroke-width="1"/>
<polygon points="3096,1100 3224,1164 3096,1228 2968,1164" fill="#8CB369" stroke="#779859" stroke-width="1"/>
<polygon points="2840,1100 2968,1164 2840,1228 2712,1164" fill="#8CB369" stroke="#779859" stroke-width="1"/>
<polygon points="2584,1100 2712,1164 2584,1228 2456,1164" fill="#8CB369" stroke="#779859" stroke-width="1"/>
<polygon points="2328,1100 2456,1164 2328,1228 2200,1164" fill="#8CB369" stroke="#779859" stroke-width="1"/>
<polygon points="2072,1100 2200,1164 2072,1228 1944,1164" fill="#8CB369" stroke="#779859" stroke-width="1"/>
<polygon points="1816,1100 1944,1164 1816,1228 1688,1164" fill="#8CB369" stroke="#779859" stroke-width="1"/>
<polygon points="1560,1100 1688,1164 1560,1228 1432,1164" fill="#8CB369" stroke="#779859" stroke-width="1"/>
<polygon points="1304,1100 1432,1164 1304,1228 1176,1164" fill="#8CB369" stroke="#779859" stroke-width="1"/>
<polygon points="1048,1100 1176,1164 1048,1228 920,1164" fill="#8CB369" stroke="#779859" stroke-width="1"/>
<polygon points="792,1100 920,1164 792,1228 664,1164" fill="#8CB369" stroke="#779859" stroke-width="1"/>
<polygon points="536,1100 664,1164 536,1228 408,1164" fill="#8CB369" stroke="#779859" stroke-width="1"/>
<polygon points="280,1100 408,1164 280,1228 152,1164" fill="#8CB369" stroke="#779859" stroke-width="1"/>
<polygon points="1304,1100 1432,1164 1304,1228 1176,1164" fill="#7C8A6B" stroke="#6E7B5E" stroke-width="1"/><polygon points="1330,1113 1458,1177 1330,1241 1202,1177" fill="#5A5A5A"/><line x1="1304" y1="1118" x2="1304" y2="1210" stroke="#D9D9D9" stroke-width="2" stroke-dasharray="8 8" opacity="0.7"/>
<polygon points="1304,1100 1432,1164 1304,1228 1176,1164" fill="#7C8A6B" stroke="#6E7B5E" stroke-width="1"/><polygon points="1330,1113 1458,1177 1330,1241 1202,1177" fill="#5A5A5A"/><line x1="1304" y1="1118" x2="1304" y2="1210" stroke="#D9D9D9" stroke-width="2" stroke-dasharray="8 8" opacity="0.7"/>
<polygon points="3480,1164 3608,1228 3480,1292 3352,1228" fill="#8CB369" stroke="#779859" stroke-width="1"/>
<polygon points="3224,1164 3352,1228 3224,1292 3096,1228" fill="#8CB369" stroke="#779859" stroke-width="1"/>
<polygon points="2968,1164 3096,1228 2968,1292 2840,1228" fill="#8CB369" stroke="#779859" stroke-width="1"/>
<polygon points="2712,1164 2840,1228 2712,1292 2584,1228" fill="#8CB369" stroke="#779859" stroke-width="1"/>
<polygon points="2456,1164 2584,1228 2456,1292 2328,1228" fill="#8CB369" stroke="#779859" stroke-width="1"/>
<polygon points="2200,1164 2328,1228 2200,1292 2072,1228" fill="#8CB369" stroke="#779859" stroke-width="1"/>
<polygon points="1944,1164 2072,1228 1944,1292 1816,1228" fill="#8CB369" stroke="#779859" stroke-width="1"/>
<polygon points="1688,1164 1816,1228 1688,1292 1560,1228" fill="#8CB369" stroke="#779859" stroke-width="1"/>
<polygon points="1432,1164 1560,1228 1432,1292 1304,1228" fill="#8CB369" stroke="#779859" stroke-width="1"/>
<polygon points="1176,1164 1304,1228 1176,1292 1048,1228" fill="#C9C6BE" stroke="#AAA8A1" stroke-width="1"/>
<polygon points="920,1164 1048,1228 920,1292 792,1228" fill="#8CB369" stroke="#779859" stroke-width="1"/>
<polygon points="664,1164 792,1228 664,1292 536,1228" fill="#8CB369" stroke="#779859" stroke-width="1"/>
<polygon points="408,1164 536,1228 408,1292 280,1228" fill="#8CB369" stroke="#779859" stroke-width="1"/>
<polygon points="2456,1164 2584,1228 2456,1292 2328,1228" fill="#7C8A6B" stroke="#6E7B5E" stroke-width="1"/><polygon points="2482,1177 2610,1241 2482,1305 2354,1241" fill="#5A5A5A"/><line x1="2456" y1="1182" x2="2456" y2="1274" stroke="#D9D9D9" stroke-width="2" stroke-dasharray="8 8" opacity="0.7"/>
<polygon points="2456,1164 2584,1228 2456,1292 2328,1228" fill="#7C8A6B" stroke="#6E7B5E" stroke-width="1"/><polygon points="2482,1177 2610,1241 2482,1305 2354,1241" fill="#5A5A5A"/><line x1="2456" y1="1182" x2="2456" y2="1274" stroke="#D9D9D9" stroke-width="2" stroke-dasharray="8 8" opacity="0.7"/>
<polygon points="1176,1164 1304,1228 1176,1292 1048,1228" fill="#F5B041" opacity="0.28"/>
<polygon points="1048,1228 1176,1292 1176,1142 1048,1078" fill="#94A8A5"/><polygon points="1176,1292 1304,1228 1304,1078 1176,1142" fill="#768583"/><polygon points="1176,1014 1304,1078 1176,1142 1048,1078" fill="#2E7D74"/>
<polygon points="3352,1228 3480,1292 3352,1356 3224,1292" fill="#8CB369" stroke="#779859" stroke-width="1"/>
<polygon points="3096,1228 3224,1292 3096,1356 2968,1292" fill="#8CB369" stroke="#779859" stroke-width="1"/>
<polygon points="2840,1228 2968,1292 2840,1356 2712,1292" fill="#8CB369" stroke="#779859" stroke-width="1"/>
<polygon points="2584,1228 2712,1292 2584,1356 2456,1292" fill="#8CB369" stroke="#779859" stroke-width="1"/>
<polygon points="2328,1228 2456,1292 2328,1356 2200,1292" fill="#8CB369" stroke="#779859" stroke-width="1"/>
<polygon points="2072,1228 2200,1292 2072,1356 1944,1292" fill="#8CB369" stroke="#779859" stroke-width="1"/>
<polygon points="1816,1228 1944,1292 1816,1356 1688,1292" fill="#8CB369" stroke="#779859" stroke-width="1"/>
<polygon points="1560,1228 1688,1292 1560,1356 1432,1292" fill="#8CB369" stroke="#779859" stroke-width="1"/>
<polygon points="1304,1228 1432,1292 1304,1356 1176,1292" fill="#8CB369" stroke="#779859" stroke-width="1"/>
<polygon points="1048,1228 1176,1292 1048,1356 920,1292" fill="#8CB369" stroke="#779859" stroke-width="1"/>
<polygon points="792,1228 920,1292 792,1356 664,1292" fill="#8CB369" stroke="#779859" stroke-width="1"/>
<polygon points="536,1228 664,1292 536,1356 408,1292" fill="#8CB369" stroke="#779859" stroke-width="1"/>
<rect x="2298" y="1308" width="60" height="36" rx="4" fill="#E0A458" stroke="#B07A34"/>
<polygon points="3224,1292 3352,1356 3224,1420 3096,1356" fill="#8CB369" stroke="#779859" stroke-width="1"/>
<polygon points="2968,1292 3096,1356 2968,1420 2840,1356" fill="#8CB369" stroke="#779859" stroke-width="1"/>
<polygon points="2712,1292 2840,1356 2712,1420 2584,1356" fill="#8CB369" stroke="#779859" stroke-width="1"/>
<polygon points="2456,1292 2584,1356 2456,1420 2328,1356" fill="#C9C6BE" stroke="#AAA8A1" stroke-width="1"/>
<polygon points="2200,1292 2328,1356 2200,1420 2072,1356" fill="#8CB369" stroke="#779859" stroke-width="1"/>
<polygon points="1944,1292 2072,1356 1944,1420 1816,1356" fill="#8CB369" stroke="#779859" stroke-width="1"/>
<polygon points="1688,1292 1816,1356 1688,1420 1560,1356" fill="#8CB369" stroke="#779859" stroke-width="1"/>
<polygon points="1432,1292 1560,1356 1432,1420 1304,1356" fill="#8CB369" stroke="#779859" stroke-width="1"/>
<polygon points="1176,1292 1304,1356 1176,1420 1048,1356" fill="#8CB369" stroke="#779859" stroke-width="1"/>
<polygon points="920,1292 1048,1356 920,1420 792,1356" fill="#8CB369" stroke="#779859" stroke-width="1"/>
<polygon points="664,1292 792,1356 664,1420 536,1356" fill="#8CB369" stroke="#779859" stroke-width="1"/>
<polygon points="2456,1292 2584,1356 2456,1420 2328,1356" fill="#F5B041" opacity="0.28"/>
<polygon points="2200,1292 2456,1420 2456,1300 2200,1172" fill="#9BA4B4"/><polygon points="2456,1420 2712,1292 2712,1172 2456,1300" fill="#7B828F"/><polygon points="2456,1044 2712,1172 2456,1300 2200,1172" fill="#3D6098"/>
<polygon points="3096,1356 3224,1420 3096,1484 2968,1420" fill="#8CB369" stroke="#779859" stroke-width="1"/>
<polygon points="2840,1356 2968,1420 2840,1484 2712,1420" fill="#8CB369" stroke="#779859" stroke-width="1"/>
<polygon points="2584,1356 2712,1420 2584,1484 2456,1420" fill="#8CB369" stroke="#779859" stroke-width="1"/>
<polygon points="2328,1356 2456,1420 2328,1484 2200,1420" fill="#8CB369" stroke="#779859" stroke-width="1"/>
<polygon points="2072,1356 2200,1420 2072,1484 1944,1420" fill="#8CB369" stroke="#779859" stroke-width="1"/>
<polygon points="1816,1356 1944,1420 1816,1484 1688,1420" fill="#8CB369" stroke="#779859" stroke-width="1"/>
<polygon points="1560,1356 1688,1420 1560,1484 1432,1420" fill="#8CB369" stroke="#779859" stroke-width="1"/>
<polygon points="1304,1356 1432,1420 1304,1484 1176,1420" fill="#8CB369" stroke="#779859" stroke-width="1"/>
<polygon points="1048,1356 1176,1420 1048,1484 920,1420" fill="#8CB369" stroke="#779859" stroke-width="1"/>
<polygon points="792,1356 920,1420 792,1484 664,1420" fill="#8CB369" stroke="#779859" stroke-width="1"/>
<polygon points="2968,1420 3096,1484 2968,1548 2840,1484" fill="#8CB369" stroke="#779859" stroke-width="1"/>
<polygon points="2712,1420 2840,1484 2712,1548 2584,1484" fill="#8CB369" stroke="#779859" stroke-width="1"/>
<polygon points="2456,1420 2584,1484 2456,1548 2328,1484" fill="#8CB369" stroke="#779859" stroke-width="1"/>
<polygon points="2200,1420 2328,1484 2200,1548 2072,1484" fill="#8CB369" stroke="#779859" stroke-width="1"/>
<polygon points="1944,1420 2072,1484 1944,1548 1816,1484" fill="#8CB369" stroke="#779859" stroke-width="1"/>
<polygon points="1688,1420 1816,1484 1688,1548 1560,1484" fill="#8CB369" stroke="#779859" stroke-width="1"/>
<polygon points="1432,1420 1560,1484 1432,1548 1304,1484" fill="#8CB369" stroke="#779859" stroke-width="1"/>
<polygon points="1176,1420 1304,1484 1176,1548 1048,1484" fill="#8CB369" stroke="#779859" stroke-width="1"/>
<polygon points="920,1420 1048,1484 920,1548 792,1484" fill="#8CB369" stroke="#779859" stroke-width="1"/>
<polygon points="2840,1484 2968,1548 2840,1612 2712,1548" fill="#8CB369" stroke="#779859" stroke-width="1"/>
<polygon points="2584,1484 2712,1548 2584,1612 2456,1548" fill="#8CB369" stroke="#779859" stroke-width="1"/>
<polygon points="2328,1484 2456,1548 2328,1612 2200,1548" fill="#8CB369" stroke="#779859" stroke-width="1"/>
<polygon points="2072,1484 2200,1548 2072,1612 1944,1548" fill="#8CB369" stroke="#779859" stroke-width="1"/>
<polygon points="1816,1484 1944,1548 1816,1612 1688,1548" fill="#8CB369" stroke="#779859" stroke-width="1"/>
<polygon points="1560,1484 1688,1548 1560,1612 1432,1548" fill="#8CB369" stroke="#779859" stroke-width="1"/>
<polygon points="1304,1484 1432,1548 1304,1612 1176,1548" fill="#8CB369" stroke="#779859" stroke-width="1"/>
<polygon points="1048,1484 1176,1548 1048,1612 920,1548" fill="#8CB369" stroke="#779859" stroke-width="1"/>
<polygon points="2712,1548 2840,1612 2712,1676 2584,1612" fill="#8CB369" stroke="#779859" stroke-width="1"/>
<polygon points="2456,1548 2584,1612 2456,1676 2328,1612" fill="#8CB369" stroke="#779859" stroke-width="1"/>
<polygon points="2200,1548 2328,1612 2200,1676 2072,1612" fill="#8CB369" stroke="#779859" stroke-width="1"/>
<polygon points="1944,1548 2072,1612 1944,1676 1816,1612" fill="#8CB369" stroke="#779859" stroke-width="1"/>
<polygon points="1688,1548 1816,1612 1688,1676 1560,1612" fill="#8CB369" stroke="#779859" stroke-width="1"/>
<polygon points="1432,1548 1560,1612 1432,1676 1304,1612" fill="#8CB369" stroke="#779859" stroke-width="1"/>
<polygon points="1176,1548 1304,1612 1176,1676 1048,1612" fill="#8CB369" stroke="#779859" stroke-width="1"/>
<polygon points="2584,1612 2712,1676 2584,1740 2456,1676" fill="#8CB369" stroke="#779859" stroke-width="1"/>
<polygon points="2328,1612 2456,1676 2328,1740 2200,1676" fill="#8CB369" stroke="#779859" stroke-width="1"/>
<polygon points="2072,1612 2200,1676 2072,1740 1944,1676" fill="#8CB369" stroke="#779859" stroke-width="1"/>
<polygon points="1816,1612 1944,1676 1816,1740 1688,1676" fill="#8CB369" stroke="#779859" stroke-width="1"/>
<polygon points="1560,1612 1688,1676 1560,1740 1432,1676" fill="#8CB369" stroke="#779859" stroke-width="1"/>
<polygon points="1304,1612 1432,1676 1304,1740 1176,1676" fill="#8CB369" stroke="#779859" stroke-width="1"/>
<polygon points="2456,1676 2584,1740 2456,1804 2328,1740" fill="#8CB369" stroke="#779859" stroke-width="1"/>
<polygon points="2200,1676 2328,1740 2200,1804 2072,1740" fill="#8CB369" stroke="#779859" stroke-width="1"/>
<polygon points="1944,1676 2072,1740 1944,1804 1816,1740" fill="#8CB369" stroke="#779859" stroke-width="1"/>
<polygon points="1688,1676 1816,1740 1688,1804 1560,1740" fill="#8CB369" stroke="#779859" stroke-width="1"/>
<polygon points="1432,1676 1560,1740 1432,1804 1304,1740" fill="#8CB369" stroke="#779859" stroke-width="1"/>
<polygon points="2328,1740 2456,1804 2328,1868 2200,1804" fill="#8CB369" stroke="#779859" stroke-width="1"/>
<polygon points="2072,1740 2200,1804 2072,1868 1944,1804" fill="#8CB369" stroke="#779859" stroke-width="1"/>
<polygon points="1816,1740 1944,1804 1816,1868 1688,1804" fill="#8CB369" stroke="#779859" stroke-width="1"/>
<polygon points="1560,1740 1688,1804 1560,1868 1432,1804" fill="#8CB369" stroke="#779859" stroke-width="1"/>
<polygon points="2200,1804 2328,1868 2200,1932 2072,1868" fill="#8CB369" stroke="#779859" stroke-width="1"/>
<polygon points="1944,1804 2072,1868 1944,1932 1816,1868" fill="#8CB369" stroke="#779859" stroke-width="1"/>
<polygon points="1688,1804 1816,1868 1688,1932 1560,1868" fill="#8CB369" stroke="#779859" stroke-width="1"/>
<polygon points="2072,1868 2200,1932 2072,1996 1944,1932" fill="#8CB369" stroke="#779859" stroke-width="1"/>
<polygon points="1816,1868 1944,1932 1816,1996 1688,1932" fill="#8CB369" stroke="#779859" stroke-width="1"/>
<polygon points="1944,1932 2072,1996 1944,2060 1816,1996" fill="#8CB369" stroke="#779859" stroke-width="1"/>
<text x="16" y="24" font-size="14" font-weight="bold" fill="#1F3864">sim state (dominant network)</text><circle cx="24" cy="40" r="6" fill="#2E86C1"/><text x="38" y="44" font-size="12" fill="#333">cool instrumental boldness</text>
</svg>